<svg width="18" height="18" viewBox="0 0 18 18" fill="none" xmlns="http://www.w3.org/2000/svg">
<path d="M9 1.125C7.44248 1.125 5.91992 1.58686 4.62489 2.45218C3.32985 3.31749 2.32049 4.5474 1.72445 5.98637C1.12841 7.42534 0.972461 9.00874 1.27632 10.5363C1.58018 12.0639 2.3302 13.4671 3.43154 14.5685C4.53288 15.6698 5.93607 16.4198 7.46367 16.7237C8.99127 17.0275 10.5747 16.8716 12.0136 16.2756C13.4526 15.6795 14.6825 14.6702 15.5478 13.3751C16.4131 12.0801 16.875 10.5575 16.875 9C16.8726 6.91215 16.0422 4.9105 14.5658 3.43417C13.0895 1.95783 11.0879 1.12738 9 1.125ZM2.25 9C2.2509 7.93024 2.50645 6.87606 2.99551 5.92464C3.48457 4.97321 4.1931 4.15188 5.0625 3.52856V5.0625C5.0625 5.21168 5.12177 5.35476 5.22726 5.46025C5.33275 5.56574 5.47582 5.625 5.625 5.625H7.52738C7.63181 5.62494 7.73417 5.59582 7.82299 5.54088C7.9118 5.48594 7.98357 5.40736 8.03025 5.31394L8.4375 4.5H10.6875V7.875H7.44525C7.35799 7.87492 7.27191 7.89514 7.19382 7.93406L5.37357 8.84475C5.28015 8.89143 5.20157 8.9632 5.14663 9.05202C5.09169 9.14083 5.06256 9.24319 5.0625 9.34762V11.4317C5.06246 11.5442 5.09615 11.6541 5.15922 11.7473C5.22229 11.8404 5.31185 11.9125 5.41632 11.9543L7.875 12.9375L8.3385 15.7163C6.67182 15.5502 5.12617 14.7712 4.00123 13.5303C2.87628 12.2894 2.25221 10.6749 2.25 9ZM12.375 14.8365V12.9375L13.3622 11.457C13.4056 11.3918 13.4349 11.3182 13.4483 11.241C13.4617 11.1638 13.4588 11.0847 13.4398 11.0087L12.9375 9V7.3125H15.5278C15.9048 8.73877 15.8 10.2496 15.2299 11.6102C14.6598 12.9708 13.6561 14.105 12.375 14.8365Z" fill="#525960"/>
</svg>
