<svg width="32" height="38" viewBox="0 0 32 38" fill="none" xmlns="http://www.w3.org/2000/svg">
<g clip-path="url(#clip0_0_146)">
<path d="M27.0413 34.5234V24.3721H30.4104V37.8927H0V24.3721H3.36925V34.5234H27.0413Z" fill="#BCBBBB"/>
<path d="M7.0885 23.4095L23.6283 26.8662L24.3283 23.5408L7.78875 20.084L7.0885 23.4095ZM9.27625 15.5334L24.5909 22.6656L25.9911 19.6028L10.6765 12.4268L9.27625 15.5334ZM13.5206 8.00737L26.5161 18.8151L28.6601 16.2335L15.6646 5.42575L13.5206 8.00737ZM21.9219 0L19.2088 2.01275L29.2726 15.5771L31.9855 13.5644L21.9219 0ZM6.73825 31.1105H23.6281V27.7412H6.73838V31.1105H6.73825Z" fill="#F48023"/>
</g>
<defs>
<clipPath id="clip0_0_146">
<rect width="32" height="38" fill="white"/>
</clipPath>
</defs>
</svg>
